<svg xmlns="http://www.w3.org/2000/svg" viewBox="0 0 180 180">
  <defs>
    <linearGradient id="bg" x1="0" y1="0" x2="1" y2="1">
      <stop offset="0%" stop-color="#1a1a2e"/>
      <stop offset="100%" stop-color="#0d0d1a"/>
    </linearGradient>
    <linearGradient id="gold" x1="0" y1="0" x2="1" y2="1">
      <stop offset="0%" stop-color="#f5c518"/>
      <stop offset="100%" stop-color="#e0a800"/>
    </linearGradient>
  </defs>
  <!-- Background -->
  <rect width="180" height="180" rx="0" fill="url(#bg)"/>
  <!-- Film strip left edge -->
  <rect x="12" y="28" width="8" height="8" rx="1.5" fill="#2a2a4a"/>
  <rect x="12" y="44" width="8" height="8" rx="1.5" fill="#2a2a4a"/>
  <rect x="12" y="60" width="8" height="8" rx="1.5" fill="#2a2a4a"/>
  <rect x="12" y="76" width="8" height="8" rx="1.5" fill="#2a2a4a"/>
  <rect x="12" y="92" width="8" height="8" rx="1.5" fill="#2a2a4a"/>
  <rect x="12" y="108" width="8" height="8" rx="1.5" fill="#2a2a4a"/>
  <rect x="12" y="124" width="8" height="8" rx="1.5" fill="#2a2a4a"/>
  <rect x="12" y="140" width="8" height="8" rx="1.5" fill="#2a2a4a"/>
  <!-- Film strip right edge -->
  <rect x="160" y="28" width="8" height="8" rx="1.5" fill="#2a2a4a"/>
  <rect x="160" y="44" width="8" height="8" rx="1.5" fill="#2a2a4a"/>
  <rect x="160" y="60" width="8" height="8" rx="1.5" fill="#2a2a4a"/>
  <rect x="160" y="76" width="8" height="8" rx="1.5" fill="#2a2a4a"/>
  <rect x="160" y="92" width="8" height="8" rx="1.5" fill="#2a2a4a"/>
  <rect x="160" y="108" width="8" height="8" rx="1.5" fill="#2a2a4a"/>
  <rect x="160" y="124" width="8" height="8" rx="1.5" fill="#2a2a4a"/>
  <rect x="160" y="140" width="8" height="8" rx="1.5" fill="#2a2a4a"/>
  <!-- Checkmark circle -->
  <circle cx="90" cy="82" r="38" fill="none" stroke="url(#gold)" stroke-width="4"/>
  <!-- Checkmark -->
  <path d="M70 82 L84 96 L112 68" fill="none" stroke="url(#gold)" stroke-width="5" stroke-linecap="round" stroke-linejoin="round"/>
  <!-- Text -->
  <text x="90" y="148" text-anchor="middle" font-family="-apple-system, SF Pro Display, Helvetica Neue, sans-serif" font-size="16" font-weight="700" letter-spacing="3" fill="#f5c518">WATCHLIST</text>
</svg>
